<?xml version="1.0" encoding="UTF-8"?>
<svg id="Capa_1" xmlns="http://www.w3.org/2000/svg" version="1.1" viewBox="0 0 50 50">
  <!-- Generator: Adobe Illustrator 30.4.0, SVG Export Plug-In . SVG Version: 2.1.4 Build 226)  -->
  <defs>
    <style>
      .st0 {
        fill: #00040d;
      }

      .st1 {
        fill: #fff;
      }
    </style>
  </defs>
  <rect class="st0" width="50" height="50"/>
  <path class="st1" d="M24.71,6.57C14.67,6.57,6.5,14.74,6.5,24.79s8.17,18.21,18.21,18.21,18.21-8.17,18.21-18.21S34.76,6.57,24.71,6.57ZM37.03,12.76l-.17-.18c.06.06.12.12.17.18ZM25.2,7.56c4.48.12,8.54,1.97,11.54,4.9l-3.03,2.94c-2.23-2.13-5.21-3.49-8.51-3.61v-4.22h0ZM24.23,7.56v4.22c-6.79.25-12.26,5.72-12.51,12.51h-4.22c.25-9.12,7.61-16.47,16.74-16.74ZM24.23,42.01c-9.12-.25-16.48-7.61-16.74-16.74h4.22c.25,6.79,5.72,12.26,12.51,12.51v4.22ZM24.23,32.46v4.35c-6.26-.25-11.29-5.28-11.54-11.54h4.63v-.97h-4.63c.25-6.26,5.28-11.29,11.54-11.54v4.63h.97v-4.63c3.03.12,5.76,1.36,7.81,3.32l-7.78,7.54c-.47-.23-1.05-.17-1.44.22-.5.49-.52,1.29-.03,1.8.49.5,1.29.52,1.8.03.4-.39.48-.96.27-1.44l7.78-7.54c1.85,2.03,3.02,4.69,3.14,7.63h-4.35v.97h4.35c-.25,6.26-5.28,11.29-11.54,11.54v-4.35h-.97ZM25.2,42.01v-4.22c6.8-.25,12.26-5.72,12.51-12.51h4.22c-.25,9.12-7.61,16.48-16.74,16.74ZM37.71,24.3c-.12-3.2-1.39-6.1-3.41-8.3l3.03-2.94c2.76,2.96,4.48,6.9,4.61,11.24h-4.22Z"/>
</svg>