<?xml version="1.0" encoding="UTF-8"?>
<svg id="Capa_1" xmlns="http://www.w3.org/2000/svg" version="1.1" viewBox="0 0 306.01 52.96">
  <!-- Generator: Adobe Illustrator 30.4.0, SVG Export Plug-In . SVG Version: 2.1.4 Build 226)  -->
  <defs>
    <style>
      .st0 {
        fill: #00040d;
      }
    </style>
  </defs>
  <path class="st0" d="M92.62,27.57c2.21-1.11,3.71-3.16,3.71-5.69,0-5.88-5.33-7.15-10.19-7.07h-13.19v28.2h13.55c6.04,0,10.98-2.05,10.98-8.77,0-3.2-1.86-5.81-4.86-6.68ZM80.29,20.5h5.69c1.54,0,3,.67,3,2.73s-1.74,2.69-3,2.69h-5.69v-5.41ZM86.18,37.13h-5.89v-6.48h5.89c2.21,0,3.95.83,3.95,3.32,0,2.33-1.62,3.16-3.95,3.16Z"/>
  <path class="st0" d="M108.02,26.11h-.08v-3.59h-6.52v20.5h6.71v-10.15c0-2.57,1.74-4.86,5.06-4.86.91,0,1.7.16,2.57.4v-6.12c-.51-.12-1.07-.16-1.58-.16-2.88,0-5.17,1.38-6.16,3.99Z"/>
  <path class="st0" d="M137.01,28.79c0-5.81-4.7-6.87-9.56-6.87-2.33,0-4.7.4-6.52,1.42-1.82,1.07-3.08,2.8-3.2,5.49h6.28c.32-1.74,1.5-2.57,3.36-2.57,1.38,0,3.24.59,3.24,2.13,0,1.26-.63,1.66-1.78,1.9-4.66.95-11.93.43-11.93,7.11,0,4.23,3.08,6.2,6.99,6.2,2.45,0,5.02-.71,6.75-2.53.08.67.16,1.3.4,1.94h6.75c-.79-1.62-.79-3.52-.79-5.25v-8.97ZM126.42,39.46c-1.5,0-2.8-.67-2.8-2.33s1.26-2.25,2.76-2.61c1.46-.39,3.2-.51,4.15-1.11.16,4.23-.91,6.04-4.11,6.04Z"/>
  <path class="st0" d="M154.47,21.92c-2.45,0-5.21,1.3-6.44,3.4h-.08v-2.8h-6.52v20.5h6.72v-11.18c0-2.25,1.11-4.38,3.63-4.38,3.67,0,3.36,2.84,3.36,5.65v9.91h6.71v-13.15c0-2.96-.55-7.94-7.39-7.94Z"/>
  <path class="st0" d="M179.9,24.72h-.08c-1.38-1.86-3.32-2.8-5.85-2.8-5.81,0-8.65,5.06-8.65,10.39,0,5.77,2.73,11.3,9.16,11.3,2.37,0,4.34-1.03,5.65-2.96h.08v2.37h6.4V14.81h-6.72v9.91ZM176.15,38.47c-3.08,0-4.11-3.12-4.11-5.92,0-2.61,1.03-5.49,4.11-5.49,2.92,0,3.99,2.73,3.99,5.69,0,2.61-.71,5.73-3.99,5.73Z"/>
  <path class="st0" d="M211.3,29.9v-.08c2.96-1.15,4.42-4.03,4.42-7.07,0-5.69-4.9-7.94-9.87-7.94h-14.38v28.2h7.35v-10.27h5.57c3.44,0,3.91,2.92,4.11,5.77.08.79.2,3.55.83,4.5h7.27c-.99-1.03-1.11-5.17-1.19-6.36-.24-2.69-1.11-6.04-4.11-6.75ZM204.98,27.06h-6.16v-6.36h5.85c2.05,0,3.71.95,3.71,3.04s-1.19,3.32-3.4,3.32Z"/>
  <path class="st0" d="M238.71,28.79c0-5.81-4.7-6.87-9.56-6.87-2.33,0-4.7.4-6.52,1.42-1.82,1.07-3.08,2.8-3.2,5.49h6.28c.32-1.74,1.5-2.57,3.36-2.57,1.38,0,3.24.59,3.24,2.13,0,1.26-.63,1.66-1.78,1.9-4.66.95-11.93.43-11.93,7.11,0,4.23,3.08,6.2,6.99,6.2,2.45,0,5.02-.71,6.75-2.53.08.67.16,1.3.4,1.94h6.75c-.79-1.62-.79-3.52-.79-5.25v-8.97ZM228.13,39.46c-1.5,0-2.8-.67-2.8-2.33s1.26-2.25,2.76-2.61c1.46-.39,3.2-.51,4.15-1.11.16,4.23-.91,6.04-4.11,6.04Z"/>
  <path class="st0" d="M256.72,24.72h-.08c-1.38-1.86-3.32-2.8-5.85-2.8-5.81,0-8.65,5.06-8.65,10.39,0,5.77,2.73,11.3,9.16,11.3,2.37,0,4.35-1.03,5.65-2.96h.08v2.37h6.4V14.81h-6.72v9.91ZM252.97,38.47c-3.08,0-4.11-3.12-4.11-5.92,0-2.61,1.03-5.49,4.11-5.49s3.99,2.73,3.99,5.69c0,2.61-.71,5.73-3.99,5.73Z"/>
  <path class="st0" d="M287.02,28.79c0-5.81-4.7-6.87-9.56-6.87-2.33,0-4.7.4-6.52,1.42-1.82,1.07-3.08,2.8-3.2,5.49h6.28c.32-1.74,1.5-2.57,3.36-2.57,1.38,0,3.24.59,3.24,2.13,0,1.26-.63,1.66-1.78,1.9-4.66.95-11.93.43-11.93,7.11,0,4.23,3.08,6.2,6.99,6.2,2.45,0,5.02-.71,6.75-2.53.08.67.16,1.3.4,1.94h6.75c-.79-1.62-.79-3.52-.79-5.25v-8.97ZM276.43,39.46c-1.5,0-2.8-.67-2.8-2.33s1.26-2.25,2.76-2.61c1.46-.39,3.2-.51,4.15-1.11.16,4.23-.91,6.04-4.11,6.04Z"/>
  <path class="st0" d="M304.43,22.12c-2.88,0-5.17,1.38-6.16,3.99h-.08v-3.59h-6.52v20.5h6.71v-10.15c0-2.57,1.74-4.86,5.06-4.86.91,0,1.7.16,2.57.4v-6.12c-.51-.12-1.07-.16-1.58-.16Z"/>
  <path class="st0" d="M26.48,0C11.88,0,0,11.88,0,26.48s11.88,26.48,26.48,26.48,26.48-11.88,26.48-26.48S41.08,0,26.48,0ZM44.39,8.99l-.25-.26c.08.08.17.17.25.26ZM27.18,1.44c6.52.18,12.41,2.86,16.77,7.12l-4.41,4.27c-3.24-3.1-7.57-5.07-12.37-5.25V1.44ZM25.78,1.44v6.14c-9.87.37-17.82,8.32-18.19,18.19H1.45C1.82,12.51,12.52,1.82,25.78,1.44ZM25.78,51.52c-13.26-.37-23.96-11.07-24.33-24.33h6.14c.37,9.87,8.32,17.82,18.19,18.19v6.14ZM25.78,37.63v6.33c-9.1-.36-16.42-7.68-16.78-16.78h6.73v-1.41h-6.73c.36-9.1,7.68-16.42,16.78-16.78v6.73h1.41v-6.73c4.4.18,8.37,1.98,11.35,4.82l-11.31,10.96c-.68-.34-1.53-.24-2.1.32-.73.71-.75,1.88-.04,2.61.71.73,1.88.75,2.61.04.58-.56.7-1.4.39-2.09l11.31-10.96c2.69,2.95,4.39,6.82,4.57,11.09h-6.33v1.41h6.33c-.36,9.1-7.68,16.42-16.78,16.78v-6.33h-1.41ZM27.18,51.52v-6.14c9.88-.37,17.82-8.32,18.19-18.19h6.14c-.37,13.26-11.07,23.96-24.33,24.33ZM45.37,25.78c-.17-4.65-2.02-8.87-4.96-12.07l4.4-4.27c4.01,4.31,6.52,10.03,6.7,16.34h-6.14Z"/>
</svg>