<?xml version="1.0" encoding="UTF-8"?>
<svg id="Capa_1" xmlns="http://www.w3.org/2000/svg" version="1.1" viewBox="0 0 1834 371.25">
  <!-- Generator: Adobe Illustrator 30.4.0, SVG Export Plug-In . SVG Version: 2.1.4 Build 226)  -->
  <defs>
    <style>
      .st0 {
        fill: #00040d;
      }
    </style>
  </defs>
  <g>
    <polygon class="st0" points="0 371.25 236.15 371.25 236.15 298.14 73.11 298.14 73.11 73.11 0 73.11 0 371.25"/>
    <polygon class="st0" points="73.11 0 73.11 73.11 393.79 73.11 393.79 224.95 236.15 224.95 236.15 298.06 466.9 298.06 466.9 0 73.11 0"/>
  </g>
  <g>
    <path class="st0" d="M604.91,55.92c14.22,0,26.41,1.98,36.56,5.95,10.15,3.97,17.97,10.06,23.43,18.28s8.2,18.42,8.2,30.61-2.74,22.39-8.2,30.61-13.27,14.32-23.43,18.28c-10.15,3.96-22.34,5.95-36.56,5.95s-26.41-1.98-36.56-5.95c-10.15-3.96-17.97-10.06-23.43-18.28s-8.2-18.43-8.2-30.61,2.73-22.39,8.2-30.61c5.46-8.22,13.28-14.31,23.43-18.28,10.15-3.96,22.35-5.95,36.56-5.95M604.91,143.4c12.48,0,21.95-2.78,28.44-8.34,6.48-5.56,9.72-13.66,9.72-24.3s-3.24-18.75-9.72-24.31-15.96-8.34-28.44-8.34-21.96,2.78-28.44,8.34-9.72,13.67-9.72,24.31,3.24,18.74,9.72,24.3,15.96,8.34,28.44,8.34"/>
    <polygon class="st0" points="834.58 162.55 807.3 162.55 807.3 84.64 806.58 84.64 772.63 162.55 750.57 162.55 716.19 83.63 715.32 83.63 715.32 162.55 689.34 162.55 689.34 58.96 732.73 58.96 761.31 127.3 762.18 127.3 790.32 58.96 834.58 58.96 834.58 162.55"/>
    <polygon class="st0" points="975.31 58.96 975.31 162.55 943.97 162.55 881.3 91.46 880.57 91.46 880.57 162.55 854.6 162.55 854.6 58.96 886.66 58.96 948.47 129.18 949.19 129.18 949.19 58.96 975.31 58.96"/>
    <rect class="st0" x="995.19" y="58.96" width="27.28" height="103.59"/>
    <path class="st0" d="M1137.23,98.28c-.39-3.48-1.79-6.77-4.21-9.87-2.42-3.09-6-5.58-10.73-7.47-4.74-1.89-10.45-2.83-17.12-2.83-11.7,0-20.72,2.81-27.06,8.41-6.34,5.61-9.5,13.69-9.5,24.23s3.17,18.62,9.5,24.23c6.34,5.61,15.36,8.41,27.06,8.41,10.06,0,17.8-2.08,23.22-6.24,5.41-4.16,8.36-9.52,8.85-16.11h32.79c-.19,9.49-2.85,17.56-7.98,24.24-5.13,6.67-12.51,11.73-22.13,15.16-9.62,3.43-21.2,5.15-34.75,5.15s-25.56-2.01-35.47-6.02c-9.92-4.01-17.58-10.11-23-18.28-5.42-8.18-8.13-18.36-8.13-30.54s2.71-22.36,8.13-30.53c5.41-8.18,13.08-14.27,23-18.29,9.92-4.01,21.74-6.02,35.47-6.02s24.93,1.69,34.45,5.07c9.53,3.39,16.83,8.25,21.91,14.58,5.08,6.34,7.81,13.91,8.2,22.71h-32.5Z"/>
    <path class="st0" d="M1250.54,55.92c14.22,0,26.41,1.98,36.56,5.95,10.15,3.97,17.96,10.06,23.43,18.28,5.46,8.22,8.2,18.42,8.2,30.61s-2.74,22.39-8.2,30.61c-5.47,8.22-13.28,14.32-23.43,18.28-10.15,3.96-22.35,5.95-36.56,5.95s-26.41-1.98-36.56-5.95c-10.15-3.96-17.97-10.06-23.43-18.28-5.46-8.22-8.2-18.43-8.2-30.61s2.73-22.39,8.2-30.61c5.46-8.22,13.28-14.31,23.43-18.28,10.15-3.96,22.35-5.95,36.56-5.95M1250.54,143.4c12.47,0,21.95-2.78,28.44-8.34,6.48-5.56,9.72-13.66,9.72-24.3s-3.24-18.75-9.72-24.31-15.96-8.34-28.44-8.34-21.96,2.78-28.44,8.34-9.72,13.67-9.72,24.31,3.24,18.74,9.72,24.3,15.96,8.34,28.44,8.34"/>
    <polygon class="st0" points="1480.21 162.55 1452.93 162.55 1452.93 84.64 1452.2 84.64 1418.26 162.55 1396.2 162.55 1361.82 83.63 1360.95 83.63 1360.95 162.55 1334.97 162.55 1334.97 58.96 1378.35 58.96 1406.94 127.3 1407.81 127.3 1435.95 58.96 1480.21 58.96 1480.21 162.55"/>
    <path class="st0" d="M620.29,198.02c9.18,0,16.66,1.19,22.41,3.55,5.75,2.37,9.94,6.01,12.55,10.95,2.62,4.93,3.92,11.22,3.92,18.86s-1.33,14.05-3.99,18.93c-2.66,4.89-6.84,8.54-12.54,10.95-5.71,2.42-13.16,3.63-22.34,3.63h-52.53v36.7h-27.28v-103.58h79.8ZM614.34,245.03c5.23,0,9.02-1.04,11.39-3.12s3.55-5.34,3.55-9.79-1.18-7.72-3.55-9.79c-2.37-2.08-6.16-3.12-11.39-3.12h-46.57v25.83h46.57Z"/>
    <path class="st0" d="M798.88,301.61h-31.77l-22.05-36.71h-42.95v36.71h-27.27v-103.59h82.84c13.64,0,23.51,2.66,29.6,7.98,6.09,5.32,9.14,13.59,9.14,24.81,0,8.9-2.08,15.6-6.24,20.09-4.16,4.5-9.82,7.47-16.98,8.92v1.01l25.68,40.77h0ZM752.45,244.16c4.83,0,8.36-.97,10.59-2.9,2.23-1.94,3.34-4.98,3.34-9.14s-1.11-7.09-3.34-9.07c-2.23-1.98-5.76-2.97-10.59-2.97h-50.35v24.08h50.35Z"/>
    <path class="st0" d="M876.93,194.97c14.22,0,26.41,1.98,36.56,5.95s17.96,10.06,23.43,18.28c5.46,8.22,8.2,18.42,8.2,30.61s-2.73,22.39-8.2,30.61c-5.47,8.22-13.28,14.32-23.43,18.28-10.15,3.96-22.34,5.95-36.56,5.95s-26.41-1.98-36.56-5.95c-10.15-3.96-17.96-10.06-23.43-18.28s-8.2-18.43-8.2-30.61,2.73-22.39,8.2-30.61c5.46-8.22,13.27-14.31,23.43-18.28,10.15-3.96,22.35-5.95,36.56-5.95M876.93,282.46c12.48,0,21.96-2.78,28.44-8.34s9.72-13.66,9.72-24.3-3.24-18.75-9.72-24.31-15.96-8.34-28.44-8.34-21.96,2.78-28.44,8.34-9.72,13.67-9.72,24.31,3.24,18.74,9.72,24.3,15.96,8.34,28.44,8.34"/>
    <path class="st0" d="M1028.4,198.02c12.38,0,22.77,1.76,31.19,5.29,8.42,3.53,14.78,9.1,19.08,16.69,4.3,7.59,6.46,17.53,6.46,29.82s-2.16,22.22-6.46,29.81c-4.3,7.6-10.63,13.16-19,16.69s-18.79,5.29-31.26,5.29h-66.31v-103.58h66.31,0ZM989.36,219.64v60.35h33.08c10.73,0,18.86-2.39,24.37-7.18,5.52-4.79,8.27-12.45,8.27-23s-2.76-18.21-8.27-22.99c-5.51-4.79-13.64-7.18-24.37-7.18h-33.08Z"/>
    <path class="st0" d="M1222.22,198.02v60.93c0,11.13-2.44,20.07-7.32,26.84-4.89,6.77-11.76,11.61-20.61,14.51-8.85,2.9-19.56,4.35-32.14,4.35s-23.41-1.45-32.21-4.35c-8.8-2.91-15.64-7.74-20.53-14.51-4.88-6.77-7.32-15.71-7.32-26.84v-60.93h27.28v60.5c0,8.52,2.85,14.64,8.56,18.36,5.71,3.73,13.78,5.59,24.23,5.59s18.52-1.86,24.23-5.59c5.71-3.72,8.56-9.84,8.56-18.36v-60.5h27.28-.01Z"/>
    <path class="st0" d="M1337.7,237.34c-.39-3.48-1.79-6.77-4.21-9.87-2.42-3.09-6-5.58-10.73-7.47-4.74-1.89-10.45-2.83-17.12-2.83-11.7,0-20.72,2.81-27.06,8.41-6.34,5.61-9.5,13.69-9.5,24.23s3.17,18.62,9.5,24.23c6.34,5.61,15.36,8.41,27.06,8.41,10.06,0,17.8-2.08,23.22-6.24,5.41-4.16,8.36-9.52,8.85-16.11h32.79c-.19,9.49-2.85,17.56-7.98,24.24-5.13,6.67-12.51,11.73-22.13,15.16-9.63,3.42-21.2,5.14-34.75,5.14s-25.56-2.01-35.47-6.02c-9.92-4.01-17.58-10.11-23-18.28-5.42-8.18-8.13-18.36-8.13-30.54s2.71-22.36,8.13-30.53c5.41-8.18,13.08-14.27,23-18.29,9.92-4.01,21.74-6.02,35.47-6.02s24.93,1.69,34.45,5.07c9.53,3.39,16.83,8.25,21.91,14.58,5.08,6.34,7.81,13.91,8.2,22.71h-32.5v.02Z"/>
    <polygon class="st0" points="1499.39 220.51 1452.96 220.51 1452.96 301.61 1425.69 301.61 1425.69 220.51 1379.4 220.51 1379.4 198.02 1499.39 198.02 1499.39 220.51"/>
    <rect class="st0" x="1515.12" y="198.02" width="27.28" height="103.59"/>
    <path class="st0" d="M1627.77,194.97c14.22,0,26.41,1.98,36.56,5.95s17.96,10.06,23.43,18.28c5.46,8.22,8.2,18.42,8.2,30.61s-2.73,22.39-8.2,30.61c-5.47,8.22-13.28,14.32-23.43,18.28s-22.34,5.95-36.56,5.95-26.41-1.98-36.56-5.95c-10.15-3.96-17.97-10.06-23.43-18.28-5.47-8.22-8.2-18.43-8.2-30.61s2.73-22.39,8.2-30.61c5.46-8.22,13.27-14.31,23.43-18.28,10.15-3.96,22.34-5.95,36.56-5.95M1627.77,282.46c12.48,0,21.96-2.78,28.44-8.34s9.72-13.66,9.72-24.3-3.24-18.75-9.72-24.31-15.96-8.34-28.44-8.34-21.96,2.78-28.44,8.34-9.72,13.67-9.72,24.31,3.24,18.74,9.72,24.3,15.96,8.34,28.44,8.34"/>
    <polygon class="st0" points="1834 198.02 1834 301.61 1802.66 301.61 1739.99 230.52 1739.26 230.52 1739.26 301.61 1713.29 301.61 1713.29 198.02 1745.35 198.02 1807.16 268.24 1807.88 268.24 1807.88 198.02 1834 198.02"/>
  </g>
</svg>